<?xml version="1.0" encoding="UTF-8" standalone="no"?>
<!-- Created with Inkscape (http://www.inkscape.org/) -->

<svg
   width="24"
   height="24"
   viewBox="0 0 6.3499999 6.35"
   version="1.1"
   id="svg1"
   xml:space="preserve"
   xmlns="http://www.w3.org/2000/svg"
   xmlns:svg="http://www.w3.org/2000/svg"><defs
     id="defs1" /><g
     id="layer1"><path
       style="fill:#000000;stroke-width:0.635"
       d="M 0,6.3499997 6.3499995,0 H 0 Z"
       id="path4" /><path
       d="m 0.3511129,2.3419928 q 0.23704578,-0.243351 0.44310657,-0.268172 0.20600443,-0.028424 0.39355663,0.1524764 0.1048088,0.101091 0.1372525,0.2069098 0.032444,0.105819 0.015919,0.20699 -0.016582,0.097568 -0.056839,0.1864943 L 2.2218378,3.0356002 2.0346964,3.2277193 1.1839281,3.0210649 0.93084165,3.2808832 1.4732718,3.8040763 1.3128649,3.9687499 0,2.702445 Z M 0.48562421,2.4894769 0.30382968,2.6761071 0.79109749,3.1460941 0.98180348,2.9503156 Q 1.1368635,2.7911311 1.1456385,2.6576429 1.1525739,2.522381 1.0293784,2.4035541 0.90066605,2.2794072 0.77248592,2.3048224 0.64246701,2.3284633 0.48562421,2.4894769 Z M 2.7796972,2.4629015 2.3198641,2.9349658 2.2242495,2.842742 2.3390263,2.6553495 1.2891019,1.64266 1.1026139,1.7608845 1.0069993,1.6686607 1.4668325,1.1965964 1.562447,1.2888201 1.4495089,1.4779861 2.4994329,2.4906757 2.6840824,2.3706776 Z M 2.884961,0.97456896 3.3251889,0.52263145 3.9687499,1.1433692 Q 3.9003133,1.2831896 3.8117063,1.4071041 3.7230989,1.5310187 3.5894264,1.6682468 3.3915912,1.8713441 3.1752321,1.9323668 2.9570334,1.9916147 2.7349646,1.9193735 2.5128391,1.8435284 2.3050607,1.6431188 2.0991211,1.4444827 2.0267651,1.2185457 1.9544091,0.99260862 2.017814,0.76276355 2.0811618,0.52931483 2.2896911,0.31523917 2.396629,0.20545679 2.5113168,0.12799115 2.627787,0.04869579 2.7465477,0 l 0.082825,0.2005454 Q 2.7303864,0.23992404 2.6227709,0.30646747 2.5169378,0.3711814 2.4260408,0.46449646 2.1979067,0.69869889 2.2111646,0.96700006 2.2261995,1.2334715 2.4725967,1.4711254 q 0.1562936,0.1507507 0.325773,0.218402 0.1694229,0.064047 0.342612,0.021715 Q 3.3123327,1.6671384 3.4834334,1.4914862 3.5672024,1.40549 3.616824,1.3362425 3.666447,1.2669949 3.7016969,1.2051777 L 3.3118816,0.82918753 3.0320602,1.1164519 Z"
       id="text4"
       style="font-size:1.6601px;fill:#ffffff;stroke-width:0.212871"
       aria-label="RIG" /><path
       style="fill:#932ee6;fill-opacity:1"
       d="M 3.9687497,4.8947913 V 4.7624996 H 4.1010414 4.2333331 V 4.8947913 5.027083 H 4.1010414 3.9687497 V 4.8947913"
       id="path131" /><path
       style="fill:#515e6b;fill-opacity:1"
       d="M 4.2333331,4.6302079 V 4.4979162 H 4.3656248 4.4979164 V 4.6302079 4.7624996 H 4.3656248 4.2333331 V 4.6302079"
       id="path130" /><path
       style="fill:#70bada;fill-opacity:1"
       d="M 4.2333331,4.6302079 V 4.4979162 H 4.3656248 4.4979164 V 4.6302079 4.7624996 H 4.3656248 4.2333331 V 4.6302079"
       id="path129" /><path
       style="fill:#ef710d;fill-opacity:1"
       d="M 4.4979164,4.3656248 V 4.2333331 H 4.630208 4.7624997 V 4.3656248 4.4979165 H 4.630208 4.4979164 V 4.3656248"
       id="path128" /><path
       style="fill:#0648f2;fill-opacity:1"
       d="M 4.7624998,4.1010414 V 3.9687498 H 4.8947914 5.0270831 V 4.1010414 4.2333332 H 4.8947914 4.7624998 V 4.1010414"
       id="path127" /><path
       style="fill:#603622;fill-opacity:1"
       d="M 5.820833,5.6885415 V 5.5562498 H 5.9531247 6.0854164 V 5.6885415 5.8208331 H 5.9531247 5.820833 V 5.6885415"
       id="path123" /><path
       style="fill:#9e86c7;fill-opacity:1"
       d="M 6.0854164,4.8947915 V 4.7624998 H 6.2177081 6.3499997 V 4.8947915 5.0270831 H 6.2177081 6.0854164 V 4.8947915"
       id="path122" /><path
       style="fill:#d07a2f;fill-opacity:1"
       d="M 5.8208331,4.8947915 V 4.7624998 H 5.9531248 6.0854164 V 4.8947915 5.0270831 H 5.9531248 5.8208331 V 4.8947915"
       id="path121" /><path
       style="fill:#a49142;fill-opacity:1"
       d="M 5.5562498,4.8947915 V 4.7624998 H 5.6885414 5.8208331 V 4.8947915 5.0270831 H 5.6885414 5.5562498 V 4.8947915"
       id="path120" /><path
       style="fill:#49cde1;fill-opacity:1"
       d="M 5.0270831,4.1010416 V 3.9687499 H 5.1593747 5.2916664 V 4.1010416 4.2333332 H 5.1593747 5.0270831 V 4.1010416"
       id="path119" /><path
       style="fill:#9fef05;fill-opacity:1"
       d="M 5.820833,5.4239582 V 5.2916665 H 5.9531247 6.0854164 V 5.4239582 5.5562498 H 5.9531247 5.820833 V 5.4239582"
       id="path115" /><path
       style="fill:#df13f8;fill-opacity:1"
       d="M 6.0854166,3.3072914 V 3.1749997 H 6.2177083 6.3499999 V 3.3072914 3.439583 H 6.2177083 6.0854166 V 3.3072914"
       id="path114" /><path
       style="fill:#d41b11;fill-opacity:1"
       d="M 5.8208331,4.6302082 V 4.4979165 H 5.9531248 6.0854164 V 4.6302082 4.7624998 H 5.9531248 5.8208331 V 4.6302082"
       id="path113" /><path
       style="fill:#0c98c2;fill-opacity:1"
       d="M 5.5562498,4.6302082 V 4.4979165 H 5.6885414 5.8208331 V 4.6302082 4.7624998 H 5.6885414 5.5562498 V 4.6302082"
       id="path112" /><path
       style="fill:#376709;fill-opacity:1"
       d="M 5.820833,5.1593749 V 5.0270832 H 5.9531247 6.0854164 V 5.1593749 5.2916665 H 5.9531247 5.820833 V 5.1593749"
       id="path107" /><path
       style="fill:#db7cac;fill-opacity:1"
       d="M 6.0854164,4.3656249 V 4.2333332 H 6.2177081 6.3499997 V 4.3656249 4.4979165 H 6.2177081 6.0854164 V 4.3656249"
       id="path106" /><path
       style="fill:#dc0dd5;fill-opacity:1"
       d="M 5.8208331,4.3656249 V 4.2333332 H 5.9531248 6.0854164 V 4.3656249 4.4979165 H 5.9531248 5.8208331 V 4.3656249"
       id="path105" /><path
       style="fill:#b8d1c0;fill-opacity:1"
       d="M 5.5562498,4.3656249 V 4.2333332 H 5.6885414 5.8208331 V 4.3656249 4.4979165 H 5.6885414 5.5562498 V 4.3656249"
       id="path104" /><path
       style="fill:#c93b12;fill-opacity:1"
       d="M 5.0270831,3.836458 V 3.7041664 H 5.1593747 5.2916664 V 3.836458 3.9687497 H 5.1593747 5.0270831 V 3.836458"
       id="path99" /><path
       style="fill:#30179a;fill-opacity:1"
       d="M 3.7041664,5.1593745 V 5.0270829 H 3.8364581 3.9687497 V 5.1593745 5.2916662 H 3.8364581 3.7041664 V 5.1593745"
       id="path98" /><path
       style="fill:#ea5de1;fill-opacity:1"
       d="M 3.4395832,5.4239578 V 5.2916662 H 3.5718749 3.7041665 V 5.4239578 5.5562495 H 3.5718749 3.4395832 V 5.4239578"
       id="path97" /><path
       style="fill:#6fd75b;fill-opacity:1"
       d="M 3.175,5.6885414 V 5.5562498 H 3.3072916 3.4395833 V 5.6885414 5.8208331 H 3.3072916 3.175 V 5.6885414"
       id="path96" /><path
       style="fill:#3c15ff;fill-opacity:1"
       d="M 6.0854164,2.7781247 V 2.6458331 H 6.217708 6.3499997 V 2.7781247 2.9104164 H 6.217708 6.0854164 V 2.7781247"
       id="path95" /><path
       style="fill:#d3fe1e;fill-opacity:1"
       d="M 5.423958,3.9687497 H 5.2916664 V 3.8364581 3.7041664 H 5.423958 5.5562497 V 3.8364581 3.9687497 H 5.423958"
       id="path91" /><path
       style="fill:#94128c;fill-opacity:1"
       d="M 4.8947914,4.4979164 H 4.7624998 V 4.3656247 4.2333332 H 4.8947914 5.0270831 V 4.3656247 4.4979164 H 4.8947914"
       id="path90" /><path
       style="fill:#247837;fill-opacity:1"
       d="M 4.3656247,5.0270829 H 4.2333331 V 4.8947912 4.7624996 H 4.3656247 4.4979164 V 4.8947912 5.0270829 H 4.3656247"
       id="path89" /><path
       style="fill:#bab898;fill-opacity:1"
       d="M 4.3656247,5.2916662 H 4.2333331 V 5.1593746 5.0270829 H 4.3656247 4.4979164 V 5.1593746 5.2916662 H 4.3656247"
       id="path88" /><path
       style="fill:#868646;fill-opacity:1"
       d="M 4.3656247,5.5562495 H 4.2333331 V 5.4239579 5.2916662 H 4.3656247 4.4979164 V 5.4239579 5.5562495 H 4.3656247"
       id="path87" /><path
       style="fill:#c25c7b;fill-opacity:1"
       d="M 4.3656247,5.8208329 H 4.2333331 V 5.6885412 5.5562495 H 4.3656247 4.4979164 V 5.6885412 5.8208329 H 4.3656247"
       id="path86" /><path
       style="fill:#042ecf;fill-opacity:1"
       d="M 4.3656247,6.3499995 H 4.2333331 V 6.2177078 6.0854162 H 4.3656247 4.4979164 V 6.2177078 6.3499995 H 4.3656247"
       id="path84" /><path
       style="fill:#0bddfc;fill-opacity:1"
       d="M 2.9104165,6.2177079 V 6.0854162 H 3.0427081 3.1749998 V 6.2177079 6.3499995 H 3.0427081 2.9104165 V 6.2177079"
       id="path83" /><path
       style="fill:#82fa20;fill-opacity:1"
       d="M 3.5718747,6.3499995 H 3.4395831 V 6.2177077 6.0854163 H 3.5718747 3.7041665 V 6.2177077 6.3499995 H 3.5718747"
       id="path82" /><path
       style="fill:#ec927d;fill-opacity:1"
       d="M 5.423958,4.4979165 H 5.2916663 V 4.3656248 4.2333332 H 5.423958 5.5562497 V 4.3656248 4.4979165 H 5.423958"
       id="path81" /><path
       style="fill:#9a543e;fill-opacity:1"
       d="M 4.1010414,5.2916662 H 3.9687497 V 5.1593746 5.0270829 H 4.1010414 4.2333331 V 5.1593746 5.2916662 H 4.1010414"
       id="path80" /><path
       style="fill:#bf9f70;fill-opacity:1"
       d="M 4.1010414,5.5562495 H 3.9687497 V 5.4239579 5.2916662 H 4.1010414 4.2333331 V 5.4239579 5.5562495 H 4.1010414"
       id="path79" /><path
       style="fill:#32526a;fill-opacity:1"
       d="M 4.1010414,5.8208329 H 3.9687497 V 5.6885412 5.5562495 H 4.1010414 4.2333331 V 5.6885412 5.8208329 H 4.1010414"
       id="path78" /><path
       style="fill:#2aca34;fill-opacity:1"
       d="M 4.1010414,6.0854162 H 3.9687497 V 5.9531245 5.8208329 H 4.1010414 4.2333331 V 5.9531245 6.0854162 H 4.1010414"
       id="path77" /><path
       style="fill:#8048c4;fill-opacity:1"
       d="M 4.1010414,6.3499995 H 3.9687497 V 6.2177078 6.0854162 H 4.1010414 4.2333331 V 6.2177078 6.3499995 H 4.1010414"
       id="path76" /><path
       style="fill:#ae643d;fill-opacity:1"
       d="M 6.0854163,4.6302082 V 4.4979165 H 6.217708 6.3499997 V 4.6302082 4.7624998 H 6.217708 6.0854163 V 4.6302082"
       id="path75" /><path
       style="fill:#51d380;fill-opacity:1"
       d="M 3.4395832,5.6885412 V 5.5562495 H 3.5718749 3.7041665 V 5.6885412 5.8208328 H 3.5718749 3.4395832 V 5.6885412"
       id="path74" /><path
       style="fill:#ea5de1;fill-opacity:1"
       d="M 2.3812494,4.1010413 V 3.9687497 H 2.5135411 2.6458327 V 4.1010413 4.233333 H 2.5135411 2.3812494 V 4.1010413"
       id="path97-2" /><path
       style="fill:#6fd75b;fill-opacity:1"
       d="M 2.1166662,4.3656249 V 4.2333333 H 2.2489578 2.3812495 V 4.3656249 4.4979166 H 2.2489578 2.1166662 V 4.3656249"
       id="path96-40" /><path
       style="fill:#51d380;fill-opacity:1"
       d="M 2.3812494,4.3656247 V 4.233333 H 2.5135411 2.6458327 V 4.3656247 4.4979163 H 2.5135411 2.3812494 V 4.3656247"
       id="path74-6" /><path
       style="fill:#e2dbf9;fill-opacity:1"
       d="M 3.4395832,5.9531251 V 5.8208334 H 3.5718749 3.7041665 V 5.9531251 6.0854167 H 3.5718749 3.4395832 V 5.9531251"
       id="path73" /><path
       style="fill:#68a389;fill-opacity:1"
       d="M 3.1749997,5.9531251 V 5.8208334 H 3.3072913 3.439583 V 5.9531251 6.0854167 H 3.3072913 3.1749997 V 5.9531251"
       id="path72" /><path
       style="fill:#3d3f96;fill-opacity:1"
       d="M 5.2916666,4.1010414 V 3.9687496 H 5.4239582 5.5562499 V 4.1010414 4.2333329 H 5.4239582 5.2916666 V 4.1010414"
       id="path71" /><path
       style="fill:#b5ce51;fill-opacity:1"
       d="M 2.9104164,5.9531248 V 5.8208331 H 3.0427081 3.1749999 V 5.9531248 6.0854164 H 3.0427081 2.9104164 V 5.9531248"
       id="path70" /><path
       style="fill:#4c05db;fill-opacity:1"
       d="M 2.6458332,6.2177079 V 6.0854162 H 2.7781249 2.9104165 V 6.2177079 6.3499995 H 2.7781249 2.6458332 V 6.2177079"
       id="path69" /><path
       style="fill:#88368d;fill-opacity:1"
       d="M 3.1749997,6.2177079 V 6.0854162 H 3.3072914 3.439583 V 6.2177079 6.3499995 H 3.3072914 3.1749997 V 6.2177079"
       id="path68" /><path
       style="fill:#603622;fill-opacity:1"
       d="M 5.5562497,6.2177081 V 6.0854164 H 5.6885414 5.8208331 V 6.2177081 6.3499997 H 5.6885414 5.5562497 V 6.2177081"
       id="path123-0" /><path
       style="fill:#9e86c7;fill-opacity:1"
       d="M 5.2916664,6.2177081 V 6.0854164 H 5.4239581 5.5562497 V 6.2177081 6.3499997 H 5.4239581 5.2916664 V 6.2177081"
       id="path122-3" /><path
       style="fill:#d07a2f;fill-opacity:1"
       d="M 5.0270831,6.2177081 V 6.0854164 H 5.1593748 5.2916664 V 6.2177081 6.3499997 H 5.1593748 5.0270831 V 6.2177081"
       id="path121-9" /><path
       style="fill:#9fef05;fill-opacity:1"
       d="M 5.5562497,5.9531248 V 5.8208331 H 5.6885414 5.8208331 V 5.9531248 6.0854164 H 5.6885414 5.5562497 V 5.9531248"
       id="path115-1" /><path
       style="fill:#df13f8;fill-opacity:1"
       d="M 5.2916664,5.9531248 V 5.8208331 H 5.4239581 5.5562497 V 5.9531248 6.0854164 H 5.4239581 5.2916664 V 5.9531248"
       id="path114-9" /><path
       style="fill:#af5b26;fill-opacity:1"
       d="M 5.0270831,5.9531248 V 5.8208331 H 5.1593748 5.2916664 V 5.9531248 6.0854164 H 5.1593748 5.0270831 V 5.9531248"
       id="path113-6" /><path
       style="fill:#376709;fill-opacity:1"
       d="M 5.5562497,5.6885415 V 5.5562498 H 5.6885414 5.8208331 V 5.6885415 5.8208331 H 5.6885414 5.5562497 V 5.6885415"
       id="path107-9" /><path
       style="fill:#db7cac;fill-opacity:1"
       d="M 5.2916664,5.6885415 V 5.5562498 H 5.4239581 5.5562497 V 5.6885415 5.8208331 H 5.4239581 5.2916664 V 5.6885415"
       id="path106-3" /><path
       style="fill:#dc0dd5;fill-opacity:1"
       d="M 5.0270831,5.4239582 V 5.2916665 H 5.1593748 5.2916664 V 5.4239582 5.5562498 H 5.1593748 5.0270831 V 5.4239582"
       id="path105-3" /><path
       style="fill:#c93b12;fill-opacity:1"
       d="M 5.5562497,5.4239581 V 5.2916665 H 5.6885414 5.8208331 V 5.4239581 5.5562498 H 5.6885414 5.5562497 V 5.4239581"
       id="path99-8" /><path
       style="fill:#30179a;fill-opacity:1"
       d="M 5.2916664,5.4239581 V 5.2916665 H 5.4239581 5.5562497 V 5.4239581 5.5562498 H 5.4239581 5.2916664 V 5.4239581"
       id="path98-0" /><path
       style="fill:#ea5de1;fill-opacity:1"
       d="M 4.7624997,5.4239578 V 5.2916662 H 4.8947914 5.027083 V 5.4239578 5.5562495 H 4.8947914 4.7624997 V 5.4239578"
       id="path97-5" /><path
       style="fill:#d3fe1e;fill-opacity:1"
       d="M 5.5562497,5.1593748 V 5.0270832 H 5.6885414 5.8208331 V 5.1593748 5.2916665 H 5.6885414 5.5562497 V 5.1593748"
       id="path91-6" /><path
       style="fill:#a49142;fill-opacity:1"
       d="M 2.3812501,4.8947915 V 4.7624998 H 2.5135417 2.6458334 V 4.8947915 5.0270831 H 2.5135417 2.3812501 V 4.8947915"
       id="path120-4" /><path
       style="fill:#0c98c2;fill-opacity:1"
       d="M 2.3812501,4.6302082 V 4.4979165 H 2.5135417 2.6458334 V 4.6302082 4.7624998 H 2.5135417 2.3812501 V 4.6302082"
       id="path112-9" /><path
       style="fill:#d3fe1e;fill-opacity:1"
       d="M 2.38125,5.1593748 V 5.0270832 H 2.5135417 2.6458334 V 5.1593748 5.2916665 H 2.5135417 2.38125 V 5.1593748"
       id="path91-6-10" /><path
       style="fill:#94128c;fill-opacity:1"
       d="M 5.2916664,5.1593748 V 5.0270832 H 5.4239581 5.5562497 V 5.1593748 5.2916665 H 5.4239581 5.2916664 V 5.1593748"
       id="path90-6" /><path
       style="fill:#247837;fill-opacity:1"
       d="M 5.0270831,5.1593748 V 5.0270832 H 5.1593748 5.2916664 V 5.1593748 5.2916665 H 5.1593748 5.0270831 V 5.1593748"
       id="path89-4" /><path
       style="fill:#82fa20;fill-opacity:1"
       d="M 5.2916664,4.8947915 V 4.7624998 H 5.4239581 5.5562497 V 4.8947915 5.0270832 H 5.4239581 5.2916664 V 4.8947915"
       id="path82-0" /><path
       style="fill:#ec927d;fill-opacity:1"
       d="M 4.233333,5.9531245 V 5.8208328 H 4.3656247 4.4979163 V 5.9531245 6.0854162 H 4.3656247 4.233333 V 5.9531245"
       id="path81-0" /><path
       style="fill:#51d380;fill-opacity:1"
       d="M 5.2916664,4.6302082 V 4.4979165 H 5.4239581 5.5562497 V 4.6302082 4.7624998 H 5.4239581 5.2916664 V 4.6302082"
       id="path74-4" /><path
       style="fill:#e2dbf9;fill-opacity:1"
       d="M 5.0270831,4.6302082 V 4.4979165 H 5.1593748 5.2916664 V 4.6302082 4.7624998 H 5.1593748 5.0270831 V 4.6302082"
       id="path73-6" /><path
       style="fill:#7fb425;fill-opacity:1"
       d="M 4.7624997,6.2177078 V 6.0854161 H 4.8947914 5.027083 V 6.2177078 6.3499995 H 4.8947914 4.7624997 V 6.2177078"
       id="path125-5" /><path
       style="fill:#871536;fill-opacity:1"
       d="M 4.4979164,6.2177078 V 6.0854161 H 4.6302081 4.7624997 V 6.2177078 6.3499995 H 4.6302081 4.4979164 V 6.2177078"
       id="path124-6" /><path
       style="fill:#2002e9;fill-opacity:1"
       d="M 4.7624997,5.9531245 V 5.8208328 H 4.8947914 5.027083 V 5.9531245 6.0854161 H 4.8947914 4.7624997 V 5.9531245"
       id="path117-9" /><path
       style="fill:#74cb82;fill-opacity:1"
       d="M 4.4979164,5.9531245 V 5.8208328 H 4.6302081 4.7624997 V 5.9531245 6.0854161 H 4.6302081 4.4979164 V 5.9531245"
       id="path116-8" /><path
       style="fill:#b2605b;fill-opacity:1"
       d="M 4.7624997,5.6885412 V 5.5562495 H 4.8947914 5.027083 V 5.6885412 5.8208328 H 4.8947914 4.7624997 V 5.6885412"
       id="path109-7" /><path
       style="fill:#189720;fill-opacity:1"
       d="M 4.4979164,5.6885412 V 5.5562495 H 4.6302081 4.7624997 V 5.6885412 5.8208328 H 4.6302081 4.4979164 V 5.6885412"
       id="path108-2" /><path
       style="fill:#8ca323;fill-opacity:1"
       d="M 5.0270831,5.6885415 V 5.5562498 H 5.1593748 5.2916664 V 5.6885415 5.8208331 H 5.1593748 5.0270831 V 5.6885415"
       id="path101-8" /><path
       style="fill:#00d024;fill-opacity:1"
       d="M 4.4979164,5.4239579 V 5.2916662 H 4.6302081 4.7624997 V 5.4239579 5.5562495 H 4.6302081 4.4979164 V 5.4239579"
       id="path100-2" /><path
       style="fill:#718cf5;fill-opacity:1"
       d="M 4.7624997,5.1593745 V 5.0270829 H 4.8947914 5.027083 V 5.1593745 5.2916662 H 4.8947914 4.7624997 V 5.1593745"
       id="path93-9" /><path
       style="fill:#508018;fill-opacity:1"
       d="M 4.4979164,5.1593745 V 5.0270829 H 4.6302081 4.7624997 V 5.1593745 5.2916662 H 4.6302081 4.4979164 V 5.1593745"
       id="path92-9" /><path
       style="fill:#84dc33;fill-opacity:1"
       d="M 4.7624997,4.8947912 V 4.7624996 H 4.8947914 5.027083 V 4.8947912 5.0270829 H 4.8947914 4.7624997 V 4.8947912"
       id="path85-6" /><path
       style="fill:#042ecf;fill-opacity:1"
       d="M 4.4979164,4.8947912 V 4.7624996 H 4.6302081 4.7624997 V 4.8947912 5.0270829 H 4.6302081 4.4979164 V 4.8947912"
       id="path84-0" /><path
       style="fill:#2aca34;fill-opacity:1"
       d="M 4.7624997,4.6302079 V 4.4979162 H 4.8947914 5.027083 V 4.6302079 4.7624996 H 4.8947914 4.7624997 V 4.6302079"
       id="path77-2" /><path
       style="fill:#8048c4;fill-opacity:1"
       d="M 4.4979164,4.6302079 V 4.4979162 H 4.6302081 4.7624997 V 4.6302079 4.7624996 H 4.6302081 4.4979164 V 4.6302079"
       id="path76-7" /><path
       style="fill:#8428f0;fill-opacity:1"
       d="M 6.0854165,4.1010413 V 3.9687496 H 6.2177082 6.3499999 V 4.1010413 4.233333 H 6.2177082 6.0854165 V 4.1010413"
       id="path126" /><path
       style="fill:#7fb425;fill-opacity:1"
       d="M 5.8208332,4.1010413 V 3.9687496 H 5.9531249 6.0854165 V 4.1010413 4.233333 H 5.9531249 5.8208332 V 4.1010413"
       id="path125" /><path
       style="fill:#871536;fill-opacity:1"
       d="M 5.5562499,4.1010413 V 3.9687496 H 5.6885416 5.8208332 V 4.1010413 4.233333 H 5.6885416 5.5562499 V 4.1010413"
       id="path124" /><path
       style="fill:#291a80;fill-opacity:1"
       d="M 6.0854165,3.836458 V 3.7041663 H 6.2177082 6.3499999 V 3.836458 3.9687496 H 6.2177082 6.0854165 V 3.836458"
       id="path118" /><path
       style="fill:#c22f0b;fill-opacity:1"
       d="M 6.0854164,3.5718749 V 3.4395832 H 6.2177081 6.3499997 V 3.5718749 3.7041665 H 6.2177081 6.0854164 V 3.5718749"
       id="path113-0" /><path
       style="fill:#df13f8;fill-opacity:1"
       d="M 5.2916669,2.778125 V 2.6458333 H 5.4239586 5.5562502 V 2.778125 2.9104166 H 5.4239586 5.2916669 V 2.778125"
       id="path114-6" /><path
       style="fill:#291a80;fill-opacity:1"
       d="M 5.2916668,3.3072916 V 3.1749999 H 5.4239585 5.5562502 V 3.3072916 3.4395832 H 5.4239585 5.2916668 V 3.3072916"
       id="path118-1" /><path
       style="fill:#c22f0b;fill-opacity:1"
       d="M 5.2916667,3.0427085 V 2.9104168 H 5.4239584 5.55625 V 3.0427085 3.1750001 H 5.4239584 5.2916667 V 3.0427085"
       id="path113-0-0" /><path
       style="fill:#2002e9;fill-opacity:1"
       d="M 5.8208332,3.836458 V 3.7041663 H 5.9531249 6.0854165 V 3.836458 3.9687496 H 5.9531249 5.8208332 V 3.836458"
       id="path117" /><path
       style="fill:#74cb82;fill-opacity:1"
       d="M 5.5562499,3.836458 V 3.7041663 H 5.6885416 5.8208332 V 3.836458 3.9687496 H 5.6885416 5.5562499 V 3.836458"
       id="path116" /><path
       style="fill:#b2605b;fill-opacity:1"
       d="M 5.8208332,3.5718747 V 3.439583 H 5.9531249 6.0854165 V 3.5718747 3.7041663 H 5.9531249 5.8208332 V 3.5718747"
       id="path109" /><path
       style="fill:#189720;fill-opacity:1"
       d="M 5.5562499,3.5718747 V 3.439583 H 5.6885416 5.8208332 V 3.5718747 3.7041663 H 5.6885416 5.5562499 V 3.5718747"
       id="path108" /><path
       style="fill:#8ca323;fill-opacity:1"
       d="M 5.8208332,3.3072914 V 3.1749997 H 5.9531249 6.0854165 V 3.3072914 3.439583 H 5.9531249 5.8208332 V 3.3072914"
       id="path101" /><path
       style="fill:#00d024;fill-opacity:1"
       d="M 5.5562499,3.3072914 V 3.1749997 H 5.6885416 5.8208332 V 3.3072914 3.439583 H 5.6885416 5.5562499 V 3.3072914"
       id="path100" /><path
       style="fill:#00d024;fill-opacity:1"
       d="M 2.3812494,6.217708 V 6.0854163 H 2.5135411 2.6458327 V 6.217708 6.3499996 H 2.5135411 2.3812494 V 6.217708"
       id="path100-4" /><path
       style="fill:#6d9023;fill-opacity:1"
       d="M 6.0854165,3.042708 V 2.9104164 H 6.2177082 6.3499999 V 3.042708 3.1749997 H 6.2177082 6.0854165 V 3.042708"
       id="path94" /><path
       style="fill:#718cf5;fill-opacity:1"
       d="M 5.8208332,3.042708 V 2.9104164 H 5.9531249 6.0854165 V 3.042708 3.1749997 H 5.9531249 5.8208332 V 3.042708"
       id="path93" /><path
       style="fill:#df13f8;fill-opacity:1"
       d="M 6.0854166,0.92604181 V 0.79375011 H 6.2177083 6.3499999 V 0.92604181 1.0583334 H 6.2177083 6.0854166 V 0.92604181"
       id="path114-1" /><path
       style="fill:#c22f0b;fill-opacity:1"
       d="M 6.0854164,1.1906253 V 1.0583336 H 6.2177081 6.3499997 V 1.1906253 1.3229169 H 6.2177081 6.0854164 V 1.1906253"
       id="path113-0-4" /><path
       style="fill:#b2605b;fill-opacity:1"
       d="M 5.8208332,1.1906251 V 1.0583334 H 5.9531249 6.0854165 V 1.1906251 1.3229167 H 5.9531249 5.8208332 V 1.1906251"
       id="path109-6" /><path
       style="fill:#8ca323;fill-opacity:1"
       d="M 5.8208332,0.92604181 V 0.79375011 H 5.9531249 6.0854165 V 0.92604181 1.0583334 H 5.9531249 5.8208332 V 0.92604181"
       id="path101-9" /><path
       style="fill:#6d9023;fill-opacity:1"
       d="m 6.0854165,0.66145841 v -0.1322916 h 0.1322917 0.1322917 v 0.1322916 0.1322917 H 6.2177082 6.0854165 v -0.1322917"
       id="path94-4" /><path
       style="fill:#718cf5;fill-opacity:1"
       d="m 5.8208332,0.66145841 v -0.1322916 h 0.1322917 0.1322916 v 0.1322916 0.1322917 H 5.9531249 5.8208332 v -0.1322917"
       id="path93-2" /><path
       style="fill:#603622;fill-opacity:1"
       d="M 5.953125,2.9104167 H 5.8208332 V 2.778125 2.6458333 H 5.953125 6.0854165 V 2.778125 2.9104167 H 5.953125"
       id="path123-3-9-0-9" /><path
       style="fill:#c93b12;fill-opacity:1"
       d="M 3.836458,5.5562495 H 3.7041664 V 5.4239578 5.2916661 H 3.836458 3.9687497 V 5.4239578 5.5562495 H 3.836458"
       id="path99-9" /><path
       style="fill:#30179a;fill-opacity:1"
       d="M 3.836458,5.8208328 H 3.7041664 V 5.6885411 5.5562495 H 3.836458 3.9687497 V 5.6885411 5.8208328 H 3.836458"
       id="path98-9" /><path
       style="fill:#30179a;fill-opacity:1"
       d="M 2.6458333,4.1010414 V 3.9687498 H 2.778125 2.9104166 V 4.1010414 4.2333331 H 2.778125 2.6458333 V 4.1010414"
       id="path98-08" /><path
       style="fill:#c93b12;fill-opacity:1"
       d="M 2.7781249,4.4979164 H 2.6458333 V 4.3656247 4.233333 H 2.7781249 2.9104166 V 4.3656247 4.4979164 H 2.7781249"
       id="path99-9-1" /><path
       style="fill:#30179a;fill-opacity:1"
       d="M 2.7781249,4.7624997 H 2.6458333 V 4.630208 4.4979164 H 2.7781249 2.9104166 V 4.630208 4.7624997 H 2.7781249"
       id="path98-9-3" /><path
       style="fill:#ea5de1;fill-opacity:1"
       d="M 3.836458,6.0854161 H 3.7041664 V 5.9531244 5.8208328 H 3.836458 3.9687497 V 5.9531244 6.0854161 H 3.836458"
       id="path97-1" /><path
       style="fill:#6fd75b;fill-opacity:1"
       d="M 3.836458,6.3499994 H 3.7041664 V 6.2177078 6.0854161 H 3.836458 3.9687497 V 6.2177078 6.3499994 H 3.836458"
       id="path96-4" /><path
       style="fill:#51d380;fill-opacity:1"
       d="M 6.2177081,5.2916664 H 6.0854165 V 5.1593747 5.0270831 H 6.2177081 6.3499998 V 5.1593747 5.2916664 H 6.2177081"
       id="path74-7" /><path
       style="fill:#e2dbf9;fill-opacity:1"
       d="M 6.2177081,5.5562497 H 6.0854165 V 5.423958 5.2916664 H 6.2177081 6.3499998 V 5.423958 5.5562497 H 6.2177081"
       id="path73-5" /><path
       style="fill:#68a389;fill-opacity:1"
       d="M 6.2177081,5.820833 H 6.0854165 V 5.6885414 5.5562497 H 6.2177081 6.3499998 V 5.6885414 5.820833 H 6.2177081"
       id="path72-8" /><path
       style="fill:#3d3f96;fill-opacity:1"
       d="M 6.2177081,6.0854163 H 6.0854165 V 5.9531247 5.820833 H 6.2177081 6.3499998 V 5.9531247 6.0854163 H 6.2177081"
       id="path71-7" /><path
       style="fill:#b5ce51;fill-opacity:1"
       d="M 6.2177081,6.3499997 H 6.0854165 V 6.217708 6.0854163 H 6.2177081 6.3499998 V 6.217708 6.3499997 H 6.2177081"
       id="path70-0" /><path
       style="fill:#4c05db;fill-opacity:1"
       d="M 5.9531246,6.0854164 H 5.820833 V 5.9531247 5.8208331 H 5.9531246 6.0854163 V 5.9531247 6.0854164 H 5.9531246"
       id="path69-4" /><path
       style="fill:#88368d;fill-opacity:1"
       d="M 5.9531247,6.3499998 H 5.8208331 V 6.2177081 6.0854165 H 5.9531247 6.0854164 V 6.2177081 6.3499998 H 5.9531247"
       id="path68-8" /><path
       style="fill:#b5ce51;fill-opacity:1"
       d="M 5.159375,3.4395833 H 5.0270834 V 3.3072916 3.1749999 H 5.159375 5.2916667 V 3.3072916 3.4395833 H 5.159375"
       id="path70-0-0" /><path
       style="fill:#88368d;fill-opacity:1"
       d="M 4.8947916,3.4395834 H 4.7625 V 3.3072917 3.1750001 H 4.8947916 5.0270833 V 3.3072917 3.4395834 H 4.8947916"
       id="path68-8-2" /><path
       style="fill:#871536;fill-opacity:1"
       d="M 5.0270831,4.8947915 V 4.7624998 H 5.1593748 5.2916664 V 4.8947915 5.0270832 H 5.1593748 5.0270831 V 4.8947915"
       id="path124-4" /><path
       style="fill:#871536;fill-opacity:1"
       d="M 5.2916665,3.5718749 V 3.4395832 H 5.4239582 5.5562498 V 3.5718749 3.7041666 H 5.4239582 5.2916665 V 3.5718749"
       id="path124-64" /><path
       style="fill:#9e86c7;fill-opacity:1"
       d="M 5.0270831,4.3656248 V 4.2333331 H 5.1593748 5.2916664 V 4.3656248 4.4979164 H 5.1593748 5.0270831 V 4.3656248"
       id="path122-3-2" /><rect
       style="fill:#000000;stroke-width:0.145"
       id="rect1-5"
       width="0.26458332"
       height="0.26458332"
       x="6.0854168"
       y="4.9011614e-08" /><rect
       style="fill:#000000;stroke-width:0.145"
       id="rect1-8"
       width="0.26458332"
       height="0.26458332"
       x="5.8208332"
       y="0.26458341" /><rect
       style="fill:#000000;stroke-width:0.145"
       id="rect1-6"
       width="0.26458332"
       height="0.26458332"
       x="5.5562501"
       y="0.52916676" /><rect
       style="fill:#000000;stroke-width:0.145"
       id="rect1-3"
       width="0.26458332"
       height="0.26458332"
       x="5.2916665"
       y="0.79375011" /><rect
       style="fill:#000000;stroke-width:0.145"
       id="rect1-7"
       width="0.26458332"
       height="0.26458332"
       x="5.0270834"
       y="1.0583333" /><rect
       style="fill:#000000;stroke-width:0.145"
       id="rect1-0"
       width="0.26458332"
       height="0.26458332"
       x="4.7624998"
       y="1.3229166" /><rect
       style="fill:#000000;stroke-width:0.145"
       id="rect1-06"
       width="0.26458332"
       height="0.26458332"
       x="4.4979167"
       y="1.5875" /><rect
       style="fill:#000000;stroke-width:0.145"
       id="rect1-61"
       width="0.26458332"
       height="0.26458332"
       x="4.2333331"
       y="1.8520833" /><rect
       style="fill:#000000;stroke-width:0.145"
       id="rect1-76"
       width="0.26458332"
       height="0.26458332"
       x="3.96875"
       y="2.1166666" /><rect
       style="fill:#000000;stroke-width:0.145"
       id="rect1-37"
       width="0.26458332"
       height="0.26458332"
       x="3.7041664"
       y="2.3812501" /><rect
       style="fill:#000000;stroke-width:0.145"
       id="rect1-54"
       width="0.26458332"
       height="0.26458332"
       x="3.4395833"
       y="2.6458333" /><rect
       style="fill:#000000;stroke-width:0.145"
       id="rect1-30"
       width="0.26458332"
       height="0.26458332"
       x="3.175"
       y="2.9104164" /><rect
       style="fill:#000000;stroke-width:0.145"
       id="rect1-88"
       width="0.26458332"
       height="0.26458332"
       x="2.9104164"
       y="3.175" /><rect
       style="fill:#000000;stroke-width:0.145"
       id="rect1-4"
       width="0.26458332"
       height="0.26458332"
       x="2.645833"
       y="3.4395831" /><rect
       style="fill:#000000;stroke-width:0.145"
       id="rect1-68"
       width="0.26458332"
       height="0.26458332"
       x="2.3812494"
       y="3.7041667" /><rect
       style="fill:#000000;stroke-width:0.145"
       id="rect1-5-1"
       width="0.26458332"
       height="0.26458332"
       x="2.1166668"
       y="3.9687498" /><rect
       style="fill:#000000;stroke-width:0.145"
       id="rect1-8-5"
       width="0.26458332"
       height="0.26458332"
       x="1.8520831"
       y="4.2333331" /><rect
       style="fill:#000000;stroke-width:0.145"
       id="rect1-6-9"
       width="0.26458332"
       height="0.26458332"
       x="1.5875"
       y="4.4979167" /><rect
       style="fill:#000000;stroke-width:0.145"
       id="rect1-3-4"
       width="0.26458332"
       height="0.26458332"
       x="1.3229164"
       y="4.7624998" /><rect
       style="fill:#000000;stroke-width:0.145"
       id="rect1-7-9"
       width="0.26458332"
       height="0.26458332"
       x="1.0583333"
       y="5.0270834" /><rect
       style="fill:#000000;stroke-width:0.145"
       id="rect1-0-0"
       width="0.26458332"
       height="0.26458332"
       x="0.79374969"
       y="5.2916665" /><rect
       style="fill:#000000;stroke-width:0.145"
       id="rect1-06-9"
       width="0.26458332"
       height="0.26458332"
       x="0.52916658"
       y="5.5562501" /><rect
       style="fill:#000000;stroke-width:0.145"
       id="rect1-61-1"
       width="0.26458332"
       height="0.26458332"
       x="0.26458299"
       y="5.8208332" /><rect
       style="fill:#000000;stroke-width:0.145"
       id="rect1-76-7"
       width="0.26458332"
       height="0.26458332"
       x="-1.1324882e-07"
       y="6.0854163" /><path
       style="fill:#515e6b;fill-opacity:1"
       d="M 0.26458337,6.2177077 V 6.085416 h 0.1322917 0.1322916 V 6.2177077 6.3499994 H 0.39687507 0.26458337 V 6.2177077"
       id="path130-3" /><path
       style="fill:#70bada;fill-opacity:1"
       d="M 0.26458337,6.2177077 V 6.085416 h 0.1322917 0.1322916 V 6.2177077 6.3499994 H 0.39687507 0.26458337 V 6.2177077"
       id="path129-6" /><path
       style="fill:#ef710d;fill-opacity:1"
       d="M 0.52916667,5.9531246 V 5.8208329 h 0.1322916 0.1322917 V 5.9531246 6.0854163 H 0.66145827 0.52916667 V 5.9531246"
       id="path128-5" /><path
       style="fill:#0648f2;fill-opacity:1"
       d="M 0.79375007,5.6885412 V 5.5562496 H 0.92604167 1.0583334 V 5.6885412 5.820833 H 0.92604167 0.79375007 V 5.6885412"
       id="path127-6" /><path
       style="fill:#49cde1;fill-opacity:1"
       d="M 1.0583334,5.6885414 V 5.5562497 H 1.190625 1.3229167 V 5.6885414 5.820833 H 1.190625 1.0583334 V 5.6885414"
       id="path119-1" /><path
       style="fill:#df13f8;fill-opacity:1"
       d="M 2.1166669,4.8947912 V 4.7624995 H 2.2489586 2.3812502 V 4.8947912 5.0270828 H 2.2489586 2.1166669 V 4.8947912"
       id="path114-93" /><path
       style="fill:#d41b11;fill-opacity:1"
       d="M 1.8520834,6.217708 V 6.0854163 H 1.9843751 2.1166667 V 6.217708 6.3499996 H 1.9843751 1.8520834 V 6.217708"
       id="path113-9" /><path
       style="fill:#0c98c2;fill-opacity:1"
       d="M 1.5875001,6.217708 V 6.0854163 H 1.7197917 1.8520834 V 6.217708 6.3499996 H 1.7197917 1.5875001 V 6.217708"
       id="path112-0" /><path
       style="fill:#db7cac;fill-opacity:1"
       d="M 2.1166667,5.9531247 V 5.820833 H 2.2489584 2.38125 V 5.9531247 6.0854163 H 2.2489584 2.1166667 V 5.9531247"
       id="path106-8" /><path
       style="fill:#dc0dd5;fill-opacity:1"
       d="M 1.8520834,5.9531247 V 5.820833 H 1.9843751 2.1166667 V 5.9531247 6.0854163 H 1.9843751 1.8520834 V 5.9531247"
       id="path105-5" /><path
       style="fill:#b8d1c0;fill-opacity:1"
       d="M 1.5875001,5.9531247 V 5.820833 H 1.7197917 1.8520834 V 5.9531247 6.0854163 H 1.7197917 1.5875001 V 5.9531247"
       id="path104-0" /><path
       style="fill:#c93b12;fill-opacity:1"
       d="M 1.0583334,5.4239578 V 5.2916662 H 1.190625 1.3229167 V 5.4239578 5.5562495 H 1.190625 1.0583334 V 5.4239578"
       id="path99-96" /><path
       style="fill:#d3fe1e;fill-opacity:1"
       d="M 1.4552083,5.5562495 H 1.3229167 V 5.4239579 5.2916662 H 1.4552083 1.5875 V 5.4239579 5.5562495 H 1.4552083"
       id="path91-3" /><path
       style="fill:#94128c;fill-opacity:1"
       d="M 0.92604167,6.0854162 H 0.79375007 V 5.9531245 5.820833 H 0.92604167 1.0583334 V 5.9531245 6.0854162 H 0.92604167"
       id="path90-8" /><path
       style="fill:#ec927d;fill-opacity:1"
       d="M 1.4552083,6.0854163 H 1.3229166 V 5.9531246 5.820833 H 1.4552083 1.5875 V 5.9531246 6.0854163 H 1.4552083"
       id="path81-9" /><path
       style="fill:#ae643d;fill-opacity:1"
       d="M 2.1166666,6.217708 V 6.0854163 H 2.2489583 2.38125 V 6.217708 6.3499996 H 2.2489583 2.1166666 V 6.217708"
       id="path75-8" /><path
       style="fill:#3d3f96;fill-opacity:1"
       d="M 1.3229169,5.6885412 V 5.5562494 H 1.4552085 1.5875002 V 5.6885412 5.8208327 H 1.4552085 1.3229169 V 5.6885412"
       id="path71-4" /><path
       style="fill:#51d380;fill-opacity:1"
       d="M 1.3229167,6.217708 V 6.0854163 H 1.4552084 1.5875 V 6.217708 6.3499996 H 1.4552084 1.3229167 V 6.217708"
       id="path74-4-2" /><path
       style="fill:#e2dbf9;fill-opacity:1"
       d="M 1.0583334,6.217708 V 6.0854163 H 1.1906251 1.3229167 V 6.217708 6.3499996 H 1.1906251 1.0583334 V 6.217708"
       id="path73-6-1" /><path
       style="fill:#2aca34;fill-opacity:1"
       d="M 0.79374997,6.2177077 V 6.085416 H 0.92604167 1.0583333 V 6.2177077 6.3499994 H 0.92604167 0.79374997 V 6.2177077"
       id="path77-2-8" /><path
       style="fill:#8048c4;fill-opacity:1"
       d="M 0.52916667,6.2177077 V 6.085416 h 0.1322917 0.1322916 V 6.2177077 6.3499994 H 0.66145837 0.52916667 V 6.2177077"
       id="path76-7-8" /><path
       style="fill:#8428f0;fill-opacity:1"
       d="M 2.1166668,5.6885411 V 5.5562494 H 2.2489585 2.3812502 V 5.6885411 5.8208328 H 2.2489585 2.1166668 V 5.6885411"
       id="path126-3" /><path
       style="fill:#7fb425;fill-opacity:1"
       d="M 1.8520835,5.6885411 V 5.5562494 H 1.9843752 2.1166668 V 5.6885411 5.8208328 H 1.9843752 1.8520835 V 5.6885411"
       id="path125-1" /><path
       style="fill:#871536;fill-opacity:1"
       d="M 1.5875002,5.6885411 V 5.5562494 H 1.7197919 1.8520835 V 5.6885411 5.8208328 H 1.7197919 1.5875002 V 5.6885411"
       id="path124-8" /><path
       style="fill:#291a80;fill-opacity:1"
       d="M 2.1166668,5.4239578 V 5.2916661 H 2.2489585 2.3812502 V 5.4239578 5.5562494 H 2.2489585 2.1166668 V 5.4239578"
       id="path118-9" /><path
       style="fill:#c22f0b;fill-opacity:1"
       d="M 2.1166667,5.1593747 V 5.027083 H 2.2489584 2.38125 V 5.1593747 5.2916663 H 2.2489584 2.1166667 V 5.1593747"
       id="path113-0-6" /><path
       style="fill:#2002e9;fill-opacity:1"
       d="M 1.8520835,5.4239578 V 5.2916661 H 1.9843752 2.1166668 V 5.4239578 5.5562494 H 1.9843752 1.8520835 V 5.4239578"
       id="path117-4" /><path
       style="fill:#74cb82;fill-opacity:1"
       d="M 1.5875002,5.4239578 V 5.2916661 H 1.7197919 1.8520835 V 5.4239578 5.5562494 H 1.7197919 1.5875002 V 5.4239578"
       id="path116-3" /><path
       style="fill:#b2605b;fill-opacity:1"
       d="M 1.8520835,5.1593745 V 5.0270828 H 1.9843752 2.1166668 V 5.1593745 5.2916661 H 1.9843752 1.8520835 V 5.1593745"
       id="path109-3" /><path
       style="fill:#189720;fill-opacity:1"
       d="M 1.5875002,5.1593745 V 5.0270828 H 1.7197919 1.8520835 V 5.1593745 5.2916661 H 1.7197919 1.5875002 V 5.1593745"
       id="path108-3" /><path
       style="fill:#8ca323;fill-opacity:1"
       d="M 1.8520835,4.8947912 V 4.7624995 H 1.9843752 2.1166668 V 4.8947912 5.0270828 H 1.9843752 1.8520835 V 4.8947912"
       id="path101-86" /><path
       style="fill:#00d024;fill-opacity:1"
       d="M 1.5875002,4.8947912 V 4.7624995 H 1.7197919 1.8520835 V 4.8947912 5.0270828 H 1.7197919 1.5875002 V 4.8947912"
       id="path100-0" /><path
       style="fill:#871536;fill-opacity:1"
       d="M 1.3229168,5.1593747 V 5.027083 H 1.4552085 1.5875001 V 5.1593747 5.2916664 H 1.4552085 1.3229168 V 5.1593747"
       id="path124-64-4" /><path
       style="fill:#9e86c7;fill-opacity:1"
       d="M 1.0583334,5.9531246 V 5.8208329 H 1.1906251 1.3229167 V 5.9531246 6.0854162 H 1.1906251 1.0583334 V 5.9531246"
       id="path122-3-2-3" /><path
       style="fill:#bab898;fill-opacity:1"
       d="M 3.1749998,4.630208 V 4.7624996 H 3.0427082 2.9104165 V 4.630208 4.4979163 H 3.0427082 3.1749998 V 4.630208"
       id="path88-6" /><path
       style="fill:#868646;fill-opacity:1"
       d="M 3.439583,4.630208 V 4.7624996 H 3.3072915 3.1749998 V 4.630208 4.4979163 H 3.3072915 3.439583 V 4.630208"
       id="path87-1" /><path
       style="fill:#868646;fill-opacity:1"
       d="M 3.4395833,3.3072916 V 3.4395832 H 3.3072918 3.1750001 V 3.3072916 3.1749999 h 0.1322917 0.1322915 v 0.1322917"
       id="path87-1-7" /><path
       style="fill:#c25c7b;fill-opacity:1"
       d="M 3.7041665,4.630208 V 4.7624996 H 3.5718748 3.439583 V 4.630208 4.4979163 H 3.5718748 3.7041665 V 4.630208"
       id="path86-1" /><path
       style="fill:#042ecf;fill-opacity:1"
       d="M 4.233333,4.630208 V 4.7624996 H 4.1010414 3.9687498 V 4.630208 4.4979163 H 4.1010414 4.233333 V 4.630208"
       id="path84-5" /><path
       style="fill:#603622;fill-opacity:1"
       d="M 4.1010417,3.439583 H 3.96875 V 3.3072913 3.1749996 H 4.1010417 4.2333333 V 3.3072913 3.439583 H 4.1010417"
       id="path123-0-8" /><path
       style="fill:#9e86c7;fill-opacity:1"
       d="M 4.1010417,3.7041663 H 3.96875 V 3.5718746 3.439583 H 4.1010417 4.2333333 V 3.5718746 3.7041663 H 4.1010417"
       id="path122-3-1" /><path
       style="fill:#d07a2f;fill-opacity:1"
       d="M 4.1010417,3.9687496 H 3.96875 V 3.8364579 3.7041663 H 4.1010417 4.2333333 V 3.8364579 3.9687496 H 4.1010417"
       id="path121-9-0" /><path
       style="fill:#9fef05;fill-opacity:1"
       d="M 3.8364584,3.439583 H 3.7041666 V 3.3072913 3.1749996 H 3.8364584 3.96875 V 3.3072913 3.439583 H 3.8364584"
       id="path115-1-3" /><path
       style="fill:#df13f8;fill-opacity:1"
       d="M 3.8364584,3.7041663 H 3.7041666 V 3.5718746 3.439583 H 3.8364584 3.96875 V 3.5718746 3.7041663 H 3.8364584"
       id="path114-9-0" /><path
       style="fill:#af5b26;fill-opacity:1"
       d="M 3.8364584,3.9687496 H 3.7041666 V 3.8364579 3.7041663 H 3.8364584 3.96875 V 3.8364579 3.9687496 H 3.8364584"
       id="path113-6-4" /><path
       style="fill:#376709;fill-opacity:1"
       d="M 3.5718751,3.439583 H 3.4395833 V 3.3072913 3.1749996 H 3.5718751 3.7041666 V 3.3072913 3.439583 H 3.5718751"
       id="path107-9-4" /><path
       style="fill:#db7cac;fill-opacity:1"
       d="M 3.5718751,3.7041663 H 3.4395833 V 3.5718746 3.439583 H 3.5718751 3.7041666 V 3.5718746 3.7041663 H 3.5718751"
       id="path106-3-4" /><path
       style="fill:#dc0dd5;fill-opacity:1"
       d="M 3.3072918,3.9687496 H 3.175 V 3.8364579 3.7041663 H 3.3072918 3.4395833 V 3.8364579 3.9687496 H 3.3072918"
       id="path105-3-4" /><path
       style="fill:#30179a;fill-opacity:1"
       d="M 3.3072917,3.7041663 H 3.175 V 3.5718746 3.439583 H 3.3072917 3.4395833 V 3.5718746 3.7041663 H 3.3072917"
       id="path98-0-6" /><path
       style="fill:#ea5de1;fill-opacity:1"
       d="M 3.3072914,4.233333 H 3.1749998 V 4.1010413 3.9687497 H 3.3072914 3.439583 V 4.1010413 4.233333 H 3.3072914"
       id="path97-5-3" /><path
       style="fill:#94128c;fill-opacity:1"
       d="M 3.0427084,3.7041663 H 2.9104168 V 3.5718746 3.439583 H 3.0427084 3.175 V 3.5718746 3.7041663 H 3.0427084"
       id="path90-6-7" /><path
       style="fill:#247837;fill-opacity:1"
       d="M 3.0427084,3.9687496 H 2.9104168 V 3.8364579 3.7041663 H 3.0427084 3.175 V 3.8364579 3.9687496 H 3.0427084"
       id="path89-4-5" /><path
       style="fill:#bf9f70;fill-opacity:1"
       d="M 2.778125,3.9687501 H 2.6458333 V 3.8364585 3.7041668 H 2.778125 2.9104167 V 3.8364585 3.9687501 H 2.778125"
       id="path79-61" /><path
       style="fill:#ec927d;fill-opacity:1"
       d="M 3.8364581,4.7624997 H 3.7041663 V 4.630208 4.4979164 H 3.8364581 3.9687498 V 4.630208 4.7624997 H 3.8364581"
       id="path81-0-6" /><path
       style="fill:#7fb425;fill-opacity:1"
       d="M 4.1010414,4.233333 H 3.9687497 V 4.1010413 3.9687497 H 4.1010414 4.233333 V 4.1010413 4.233333 H 4.1010414"
       id="path125-5-7" /><path
       style="fill:#871536;fill-opacity:1"
       d="M 4.1010414,4.4979163 H 3.9687497 V 4.3656246 4.233333 H 4.1010414 4.233333 V 4.3656246 4.4979163 H 4.1010414"
       id="path124-6-8" /><path
       style="fill:#2002e9;fill-opacity:1"
       d="M 3.8364581,4.233333 H 3.7041663 V 4.1010413 3.9687497 H 3.8364581 3.9687497 V 4.1010413 4.233333 H 3.8364581"
       id="path117-9-5" /><path
       style="fill:#74cb82;fill-opacity:1"
       d="M 3.8364581,4.4979163 H 3.7041663 V 4.3656246 4.233333 H 3.8364581 3.9687497 V 4.3656246 4.4979163 H 3.8364581"
       id="path116-8-7" /><path
       style="fill:#b2605b;fill-opacity:1"
       d="M 3.5718748,4.233333 H 3.439583 V 4.1010413 3.9687497 H 3.5718748 3.7041663 V 4.1010413 4.233333 H 3.5718748"
       id="path109-7-4" /><path
       style="fill:#189720;fill-opacity:1"
       d="M 3.5718748,4.4979163 H 3.439583 V 4.3656246 4.233333 H 3.5718748 3.7041663 V 4.3656246 4.4979163 H 3.5718748"
       id="path108-2-1" /><path
       style="fill:#8ca323;fill-opacity:1"
       d="M 3.5718751,3.9687496 H 3.4395833 V 3.8364579 3.7041663 H 3.5718751 3.7041666 V 3.8364579 3.9687496 H 3.5718751"
       id="path101-8-8" /><path
       style="fill:#00d024;fill-opacity:1"
       d="M 3.3072915,4.4979163 H 3.1749998 V 4.3656246 4.233333 H 3.3072915 3.439583 V 4.3656246 4.4979163 H 3.3072915"
       id="path100-2-5" /><path
       style="fill:#718cf5;fill-opacity:1"
       d="M 3.0427081,4.233333 H 2.9104165 V 4.1010413 3.9687497 H 3.0427081 3.1749998 V 4.1010413 4.233333 H 3.0427081"
       id="path93-9-9" /><path
       style="fill:#508018;fill-opacity:1"
       d="M 3.0427081,4.4979163 H 2.9104165 V 4.3656246 4.233333 H 3.0427081 3.1749998 V 4.3656246 4.4979163 H 3.0427081"
       id="path92-9-7" /><path
       style="fill:#3d3f96;fill-opacity:1"
       d="M 3.9687499,2.7781246 V 2.9104162 H 3.8364583 3.7041666 V 2.7781246 2.645833 h 0.1322917 0.1322916 v 0.1322916"
       id="path71-7-8" /><path
       style="fill:#b5ce51;fill-opacity:1"
       d="M 4.2333333,2.7781246 V 2.9104162 H 4.1010416 3.9687499 V 2.7781246 2.645833 h 0.1322917 0.1322917 v 0.1322916"
       id="path70-0-9" /><path
       style="fill:#88368d;fill-opacity:1"
       d="M 4.2333333,3.042708 V 3.1749996 H 4.1010417 3.9687501 V 3.042708 2.9104163 H 4.1010417 4.2333333 V 3.042708"
       id="path68-8-7" /><path
       style="fill:#603622;fill-opacity:1"
       d="M 4.8947918,3.1749997 H 4.7625 V 3.042708 2.9104163 H 4.8947918 5.0270833 V 3.042708 3.1749997 H 4.8947918"
       id="path123-3" /><path
       style="fill:#9fef05;fill-opacity:1"
       d="M 4.6302085,3.1749997 H 4.4979167 V 3.042708 2.9104163 H 4.6302085 4.7625 V 3.042708 3.1749997 H 4.6302085"
       id="path115-2" /><path
       style="fill:#376709;fill-opacity:1"
       d="M 4.3656252,3.1749997 H 4.2333335 V 3.042708 2.9104163 H 4.3656252 4.4979167 V 3.042708 3.1749997 H 4.3656252"
       id="path107-8" /><path
       style="fill:#c93b12;fill-opacity:1"
       d="M 4.6302084,3.439583 H 4.4979167 V 3.3072913 3.1749996 H 4.6302084 4.7625 V 3.3072913 3.439583 H 4.6302084"
       id="path99-8-7" /><path
       style="fill:#d3fe1e;fill-opacity:1"
       d="M 4.3656251,3.439583 H 4.2333335 V 3.3072913 3.1749996 H 4.3656251 4.4979167 V 3.3072913 3.439583 H 4.3656251"
       id="path91-6-1" /><path
       style="fill:#51d380;fill-opacity:1"
       d="M 4.4979167,2.7781246 V 2.9104162 H 4.3656249 4.2333334 V 2.7781246 2.645833 h 0.1322915 0.1322918 v 0.1322916"
       id="path74-7-4" /><path
       style="fill:#e2dbf9;fill-opacity:1"
       d="M 4.7625,2.7781246 V 2.9104162 H 4.6302082 4.4979167 V 2.7781246 2.645833 H 4.6302082 4.7625 v 0.1322916"
       id="path73-5-8" /><path
       style="fill:#68a389;fill-opacity:1"
       d="M 5.0270833,2.7781246 V 2.9104162 H 4.8947917 4.7625 V 2.7781246 2.645833 h 0.1322917 0.1322916 v 0.1322916"
       id="path72-8-8" /><path
       style="fill:#4c05db;fill-opacity:1"
       d="M 5.2916667,3.0427081 V 3.1749997 H 5.159375 5.0270833 V 3.0427081 2.9104164 H 5.159375 5.2916667 v 0.1322917"
       id="path69-4-7" /><path
       style="fill:#603622;fill-opacity:1"
       d="M 4.8947917,3.96875 H 4.7624999 V 3.8364583 3.7041666 H 4.8947917 5.0270832 V 3.8364583 3.96875 H 4.8947917"
       id="path123-3-9" /><path
       style="fill:#9fef05;fill-opacity:1"
       d="M 4.6302084,3.96875 H 4.4979166 V 3.8364583 3.7041666 H 4.6302084 4.7624999 V 3.8364583 3.96875 H 4.6302084"
       id="path115-2-4" /><path
       style="fill:#376709;fill-opacity:1"
       d="M 4.3656251,3.96875 H 4.2333334 V 3.8364583 3.7041666 H 4.3656251 4.4979166 V 3.8364583 3.96875 H 4.3656251"
       id="path107-8-6" /><path
       style="fill:#c93b12;fill-opacity:1"
       d="M 4.6302083,4.2333333 H 4.4979166 V 4.1010416 3.9687499 H 4.6302083 4.7624999 V 4.1010416 4.2333333 H 4.6302083"
       id="path99-8-7-9" /><path
       style="fill:#d3fe1e;fill-opacity:1"
       d="M 4.365625,4.2333333 H 4.2333334 V 4.1010416 3.9687499 H 4.365625 4.4979166 V 4.1010416 4.2333333 H 4.365625"
       id="path91-6-1-2" /><path
       style="fill:#d3fe1e;fill-opacity:1"
       d="M 5.953125,1.5875 H 5.8208334 V 1.4552083 1.3229166 H 5.953125 6.0854166 V 1.4552083 1.5875 H 5.953125"
       id="path91-6-1-2-1" /><path
       style="fill:#51d380;fill-opacity:1"
       d="M 4.4979166,3.5718749 V 3.7041665 H 4.3656248 4.2333333 V 3.5718749 3.4395833 h 0.1322915 0.1322918 v 0.1322916"
       id="path74-7-4-2" /><path
       style="fill:#e2dbf9;fill-opacity:1"
       d="M 4.7624999,3.5718749 V 3.7041665 H 4.6302081 4.4979166 V 3.5718749 3.4395833 h 0.1322915 0.1322918 v 0.1322916"
       id="path73-5-8-4" /><path
       style="fill:#e2dbf9;fill-opacity:1"
       d="M 4.7624999,2.2489583 V 2.3812499 H 4.6302081 4.4979166 V 2.2489583 2.1166667 h 0.1322915 0.1322918 v 0.1322916"
       id="path73-5-8-4-1" /><path
       style="fill:#68a389;fill-opacity:1"
       d="M 5.0270832,3.5718749 V 3.7041665 H 4.8947916 4.7624999 V 3.5718749 3.4395833 h 0.1322917 0.1322916 v 0.1322916"
       id="path72-8-8-7" /><path
       style="fill:#4c05db;fill-opacity:1"
       d="M 5.2916665,3.571875 V 3.7041666 H 5.1593748 5.0270831 V 3.571875 3.4395833 H 5.1593748 5.2916664 V 3.571875"
       id="path69-4-7-7" /><path
       style="fill:#ef710d;fill-opacity:1"
       d="M 5.55625,2.2489584 V 2.1166667 H 5.6885416 5.8208333 V 2.2489584 2.3812501 H 5.6885416 5.55625 V 2.2489584"
       id="path128-9" /><path
       style="fill:#0648f2;fill-opacity:1"
       d="M 5.8208334,1.984375 V 1.8520834 H 5.953125 6.0854167 V 1.984375 2.1166668 H 5.953125 5.8208334 V 1.984375"
       id="path127-3" /><path
       style="fill:#49cde1;fill-opacity:1"
       d="M 6.0854167,1.9843752 V 1.8520835 H 6.2177083 6.35 V 1.9843752 2.1166668 H 6.2177083 6.0854167 V 1.9843752"
       id="path119-6" /><path
       style="fill:#c93b12;fill-opacity:1"
       d="M 6.0854167,1.7197916 V 1.5875 H 6.2177083 6.35 V 1.7197916 1.8520833 H 6.2177083 6.0854167 V 1.7197916"
       id="path99-80" /><path
       style="fill:#94128c;fill-opacity:1"
       d="M 5.953125,2.38125 H 5.8208334 V 2.2489583 2.1166668 H 5.953125 6.0854167 V 2.2489583 2.38125 H 5.953125"
       id="path90-2" /><path
       style="fill:#9e86c7;fill-opacity:1"
       d="M 6.0854167,2.2489584 V 2.1166667 H 6.2177084 6.35 V 2.2489584 2.38125 H 6.2177084 6.0854167 V 2.2489584"
       id="path122-3-2-1" /><path
       style="fill:#49cde1;fill-opacity:1"
       d="M 4.7625,1.9843752 V 1.8520835 H 4.8947916 5.0270833 V 1.9843752 2.1166668 H 4.8947916 4.7625 V 1.9843752"
       id="path119-6-0" /><path
       style="fill:#9e86c7;fill-opacity:1"
       d="M 4.7625,2.2489584 V 2.1166667 H 4.8947917 5.0270833 V 2.2489584 2.38125 H 4.8947917 4.7625 V 2.2489584"
       id="path122-3-2-1-4" /><path
       style="fill:#603622;fill-opacity:1"
       d="M 5.1593753,1.3229166 H 5.0270836 V 1.1906249 1.0583332 H 5.1593753 5.2916669 V 1.1906249 1.3229166 H 5.1593753"
       id="path123-0-8-0" /><path
       style="fill:#9e86c7;fill-opacity:1"
       d="M 5.1593753,1.5874999 H 5.0270836 V 1.4552082 1.3229166 H 5.1593753 5.2916669 V 1.4552082 1.5874999 H 5.1593753"
       id="path122-3-1-5" /><path
       style="fill:#d07a2f;fill-opacity:1"
       d="M 5.1593753,1.8520832 H 5.0270836 V 1.7197915 1.5874999 H 5.1593753 5.2916669 V 1.7197915 1.8520832 H 5.1593753"
       id="path121-9-0-1" /><path
       style="fill:#7fb425;fill-opacity:1"
       d="M 5.159375,2.1166666 H 5.0270833 V 1.9843749 1.8520833 H 5.159375 5.2916666 V 1.9843749 2.1166666 H 5.159375"
       id="path125-5-7-1" /><path
       style="fill:#871536;fill-opacity:1"
       d="M 5.159375,2.3812499 H 5.0270833 V 2.2489582 2.1166666 H 5.159375 5.2916666 V 2.2489582 2.3812499 H 5.159375"
       id="path124-6-8-0" /><path
       style="fill:#c93b12;fill-opacity:1"
       d="M 5.688542,1.3229166 H 5.5562503 V 1.1906249 1.0583332 H 5.688542 5.8208336 V 1.1906249 1.3229166 H 5.688542"
       id="path99-8-7-8" /><path
       style="fill:#d3fe1e;fill-opacity:1"
       d="M 5.4239587,1.3229166 H 5.2916671 V 1.1906249 1.0583332 H 5.4239587 5.5562503 V 1.1906249 1.3229166 H 5.4239587"
       id="path91-6-1-5" /><path
       style="fill:#603622;fill-opacity:1"
       d="M 5.9531253,1.8520836 H 5.8208335 V 1.7197919 1.5875002 H 5.9531253 6.0854168 V 1.7197919 1.8520836 H 5.9531253"
       id="path123-3-9-0" /><path
       style="fill:#9fef05;fill-opacity:1"
       d="M 3.5718751,3.1749997 H 3.4395833 V 3.042708 2.9104163 H 3.5718751 3.7041666 V 3.042708 3.1749997 H 3.5718751"
       id="path115-2-4-6" /><path
       style="fill:#376709;fill-opacity:1"
       d="M 5.4239587,1.8520836 H 5.291667 V 1.7197919 1.5875002 H 5.4239587 5.5562502 V 1.7197919 1.8520836 H 5.4239587"
       id="path107-8-6-4" /><path
       style="fill:#c93b12;fill-opacity:1"
       d="M 5.6885419,2.1166669 H 5.5562502 V 1.9843752 1.8520835 H 5.6885419 5.8208335 V 1.9843752 2.1166669 H 5.6885419"
       id="path99-8-7-9-6" /><path
       style="fill:#d3fe1e;fill-opacity:1"
       d="M 5.4239586,2.1166669 H 5.291667 V 1.9843752 1.8520835 H 5.4239586 5.5562502 V 1.9843752 2.1166669 H 5.4239586"
       id="path91-6-1-2-2" /><path
       style="fill:#51d380;fill-opacity:1"
       d="M 5.5562502,1.4552085 V 1.5875001 H 5.4239584 5.2916669 V 1.4552085 1.3229169 h 0.1322915 0.1322918 v 0.1322916"
       id="path74-7-4-2-5" /><path
       style="fill:#e2dbf9;fill-opacity:1"
       d="M 5.8208335,1.4552085 V 1.5875001 H 5.6885417 5.5562502 V 1.4552085 1.3229169 h 0.1322915 0.1322918 v 0.1322916"
       id="path73-5-8-4-8" /><path
       style="fill:#68a389;fill-opacity:1"
       d="M 5.5562498,2.2489583 V 2.3812499 H 5.4239582 5.2916665 V 2.2489583 2.1166667 h 0.1322917 0.1322916 v 0.1322916"
       id="path72-8-8-7-6" /><path
       style="fill:#4c05db;fill-opacity:1"
       d="M 6.3500001,1.4552086 V 1.5875002 H 6.2177084 6.0854167 V 1.4552086 1.3229169 H 6.2177084 6.35 v 0.1322917"
       id="path69-4-7-7-2" /><path
       style="fill:#9e86c7;fill-opacity:1"
       d="M 4.7624998,1.7197917 V 1.5875 H 4.8947915 5.0270831 V 1.7197917 1.8520833 H 4.8947915 4.7624998 V 1.7197917"
       id="path122-9" /><path
       style="fill:#d07a2f;fill-opacity:1"
       d="M 1.8520831,4.6302084 V 4.4979167 H 1.9843748 2.1166664 V 4.6302084 4.7625 H 1.9843748 1.8520831 V 4.6302084"
       id="path121-4" /><path
       style="fill:#a49142;fill-opacity:1"
       d="M 5.2916665,2.5135415 V 2.3812498 H 5.4239581 5.5562498 V 2.5135415 2.6458331 H 5.4239581 5.2916665 V 2.5135415"
       id="path120-8" /><path
       style="fill:#247837;fill-opacity:1"
       d="M 4.1010414,2.6458329 H 3.9687498 V 2.5135412 2.3812496 H 4.1010414 4.2333331 V 2.5135412 2.6458329 H 4.1010414"
       id="path89-5" /><path
       style="fill:#82fa20;fill-opacity:1"
       d="M 5.0270831,2.5135415 V 2.6458332 H 5.1593748 5.2916664 V 2.5135415 2.3812498 H 5.1593748 5.0270831 v 0.1322917"
       id="path82-0-9" /><path
       style="fill:#94128c;fill-opacity:1"
       d="M 5.159375,2.9104164 H 5.0270834 V 2.7781247 2.6458332 H 5.159375 5.2916667 V 2.7781247 2.9104164 H 5.159375"
       id="path90-0" /><path
       style="fill:#84dc33;fill-opacity:1"
       d="M 4.4979164,2.5135412 V 2.3812496 H 4.6302081 4.7624997 V 2.5135412 2.6458329 H 4.6302081 4.4979164 V 2.5135412"
       id="path85-6-5" /><path
       style="fill:#042ecf;fill-opacity:1"
       d="M 4.2333331,2.5135412 V 2.3812496 H 4.3656248 4.4979164 V 2.5135412 2.6458329 H 4.3656248 4.2333331 V 2.5135412"
       id="path84-0-3" /><path
       style="fill:#871536;fill-opacity:1"
       d="M 4.7624998,2.5135415 V 2.3812498 H 4.8947915 5.0270831 V 2.5135415 2.6458332 H 4.8947915 4.7624998 V 2.5135415"
       id="path124-4-6" /><path
       style="fill:#871536;fill-opacity:1"
       d="m 6.0854168,0.39687507 v -0.1322917 h 0.1322917 0.1322916 v 0.1322917 0.1322917 H 6.2177085 6.0854168 v -0.1322917"
       id="path124-4-6-0" /><path
       style="fill:#ea5de1;fill-opacity:1"
       d="M 2.6458333,4.8947913 V 4.7624997 H 2.778125 2.9104166 V 4.8947913 5.027083 H 2.778125 2.6458333 V 4.8947913"
       id="path97-3" /><path
       style="fill:#6fd75b;fill-opacity:1"
       d="M 5.5562499,2.7781247 V 2.6458331 H 5.6885415 5.8208332 V 2.7781247 2.9104164 H 5.6885415 5.5562499 V 2.7781247"
       id="path96-403" /><path
       style="fill:#868646;fill-opacity:1"
       d="M 3.5718748,5.027083 H 3.4395832 V 4.8947914 4.7624997 H 3.5718748 3.7041665 V 4.8947914 5.027083 H 3.5718748"
       id="path87-9" /><path
       style="fill:#c25c7b;fill-opacity:1"
       d="M 3.5718748,5.2916664 H 3.4395832 V 5.1593747 5.027083 H 3.5718748 3.7041665 V 5.1593747 5.2916664 H 3.5718748"
       id="path86-19" /><path
       style="fill:#bf9f70;fill-opacity:1"
       d="M 3.3072915,5.027083 H 3.1749998 V 4.8947914 4.7624997 H 3.3072915 3.4395832 V 4.8947914 5.027083 H 3.3072915"
       id="path79-6" /><path
       style="fill:#32526a;fill-opacity:1"
       d="M 3.3072915,5.2916664 H 3.1749998 V 5.1593747 5.027083 H 3.3072915 3.4395832 V 5.1593747 5.2916664 H 3.3072915"
       id="path78-9" /><path
       style="fill:#51d380;fill-opacity:1"
       d="M 2.6458333,5.1593747 V 5.027083 H 2.778125 2.9104166 V 5.1593747 5.2916663 H 2.778125 2.6458333 V 5.1593747"
       id="path74-3" /><path
       style="fill:#c93b12;fill-opacity:1"
       d="M 3.0427081,5.027083 H 2.9104165 V 4.8947913 4.7624996 H 3.0427081 3.1749998 V 4.8947913 5.027083 H 3.0427081"
       id="path99-9-3" /><path
       style="fill:#30179a;fill-opacity:1"
       d="M 2.513541,6.0854163 H 2.3812494 V 5.9531246 5.820833 H 2.513541 2.6458327 V 5.9531246 6.0854163 H 2.513541"
       id="path98-9-8" /><path
       style="fill:#30179a;fill-opacity:1"
       d="M 4.6302084,2.1166665 H 4.4979168 V 1.9843748 1.8520832 H 4.6302084 4.7625001 V 1.9843748 2.1166665 H 4.6302084"
       id="path98-9-8-6" /><path
       style="fill:#6fd75b;fill-opacity:1"
       d="M 2.38125,5.4239574 V 5.2916658 H 2.5135416 2.6458333 V 5.4239574 5.5562491 H 2.5135416 2.38125 V 5.4239574"
       id="path96-7" /><path
       style="fill:#51d380;fill-opacity:1"
       d="M 2.6458332,5.4239572 V 5.2916655 H 2.7781249 2.9104165 V 5.4239572 5.5562488 H 2.7781249 2.6458332 V 5.4239572"
       id="path74-5" /><path
       style="fill:#e2dbf9;fill-opacity:1"
       d="M 2.6458332,5.6885411 V 5.5562494 H 2.7781249 2.9104165 V 5.6885411 5.8208327 H 2.7781249 2.6458332 V 5.6885411"
       id="path73-69" /><path
       style="fill:#e2dbf9;fill-opacity:1"
       d="M 5.55625,0.9260416 V 0.7937499 H 5.6885417 5.8208333 V 0.9260416 1.0583332 H 5.6885417 5.55625 V 0.9260416"
       id="path73-69-9" /><path
       style="fill:#68a389;fill-opacity:1"
       d="M 2.3812497,5.6885411 V 5.5562494 H 2.5135413 2.645833 V 5.6885411 5.8208327 H 2.5135413 2.3812497 V 5.6885411"
       id="path72-87" /><path
       style="fill:#30179a;fill-opacity:1"
       d="M 3.042708,5.5562488 H 2.9104164 V 5.4239571 5.2916655 H 3.042708 3.1749997 V 5.4239571 5.5562488 H 3.042708"
       id="path98-9-2" /><path
       style="fill:#ea5de1;fill-opacity:1"
       d="M 3.042708,5.8208321 H 2.9104164 V 5.6885404 5.5562488 H 3.042708 3.1749997 V 5.6885404 5.8208321 H 3.042708"
       id="path97-1-8" /><path
       style="fill:#871536;fill-opacity:1"
       d="M 2.1166665,4.6302083 V 4.4979166 H 2.2489582 2.3812498 V 4.6302083 4.7625 H 2.2489582 2.1166665 V 4.6302083"
       id="path124-64-6" /><path
       style="fill:#871536;fill-opacity:1"
       d="M 2.6458333,5.953125 V 5.8208333 H 2.778125 2.9104166 V 5.953125 6.0854167 H 2.778125 2.6458333 V 5.953125"
       id="path124-6-5" /><path
       style="fill:#4c05db;fill-opacity:1"
       d="M 6.0854166,2.5135418 V 2.3812501 H 6.2177083 6.3499999 V 2.5135418 2.6458334 H 6.2177083 6.0854166 V 2.5135418"
       id="path69-9" /><path
       style="fill:#00d024;fill-opacity:1"
       d="M 5.8208328,2.5135419 V 2.3812502 H 5.9531245 6.0854161 V 2.5135419 2.6458335 H 5.9531245 5.8208328 V 2.5135419"
       id="path100-4-6" /><path
       style="fill:#ae643d;fill-opacity:1"
       d="M 5.55625,2.5135419 V 2.3812502 H 5.6885417 5.8208334 V 2.5135419 2.6458335 H 5.6885417 5.55625 V 2.5135419"
       id="path75-8-2" /><path
       style="fill:#51d380;fill-opacity:1"
       d="M 4.4979166,2.2489583 V 2.3812499 H 4.3656248 4.2333333 V 2.2489583 2.1166667 h 0.1322915 0.1322918 v 0.1322916"
       id="path74-7-4-2-9" /></g></svg>
